# xmcd
#
# Track frame offsets: 
#        150
#        16632
#        33612
#        52775
#        68975
#        82820
#        97502
#        113985
#        126857
#        146010
#        159955
#        178042
#        198535
#        212852
#
# Disc length: 3169 seconds
#
# Revision: 1
# Processed by: cddbd v1.5.2PL0 Copyright (c) Steve Scherf et al.
# Submitted via: ExactAudioCopy v0.99pb5
#
DISCID=b20c5f0e
DTITLE=Various Artist - The Songs of Jimmie Rodgers, A Tribute
DYEAR=1997
DGENRE=Country
TTITLE0=Bono - Dreaming with Tears in My Eyes
TTITLE1=Alison Krauss and Union Station - Any Old Time
TTITLE2=Dickey Betts - Waiting for a Train
TTITLE3=Mary Chapin Carpenter - Somewhere Down Below the Mason Dixon L
TTITLE3=ine
TTITLE4=David Ball - Miss the Mississippi and You
TTITLE5=Bob Dylan - My Blue Eyed Jane
TTITLE6=Willie Nelson - Peach Pickin' Time Down in Georgia
TTITLE7=Steve Earle - In the Jailhouse Now
TTITLE8=Jerry Garcia - Blue Yodel #9
TTITLE9=Iris DeMent - Hobo Bill's Last Ride
TTITLE10=John Mellencamp - Gambling Bar Room Blues
TTITLE11=Van Morrison - Mule Skinner Blues
TTITLE12=Aaron Neville - Why Should I Be Lonely
TTITLE13=Dwight Yoakam - T for Texas
EXTD=
EXTT0=
EXTT1=
EXTT2=
EXTT3=
EXTT4=
EXTT5=
EXTT6=
EXTT7=
EXTT8=
EXTT9=
EXTT10=
EXTT11=
EXTT12=
EXTT13=
PLAYORDER=
